<svg xmlns="http://www.w3.org/2000/svg" xmlns:xlink="http://www.w3.org/1999/xlink" width="16" height="16" viewBox="0 0 16 16">
	<defs>
		<linearGradient id="a">
			<stop offset="0" stop-color="#fff"/>
			<stop offset="1" stop-color="#fff" stop-opacity=".64"/>
		</linearGradient>
		<linearGradient xlink:href="#a" id="b" gradientUnits="userSpaceOnUse" x1="5.5" y1="3.5" x2="13.5" y2="13.5"/>
		<radialGradient xlink:href="#a" id="c" gradientUnits="userSpaceOnUse" cx="9.5" cy="11.5" r="13"/>
		<linearGradient xlink:href="#a" id="d" gradientUnits="userSpaceOnUse" x1="0" y1="-5" x2="0" y2="10.5"/>
	</defs>
	<rect x="1.5" y="1.5" width="14" height="14" ry="2" rx="2" fill="#99987e" stroke="#8f8b75" />
	<rect x="2.5" y="2.5" width="12" height="12" ry="1" rx="1" opacity=".25" fill="none" stroke="url(#b)" />
	<rect x="4.5" y="2.5" width="9" height="9" ry="1" rx="1" opacity=".5" fill="url(#c)" stroke="url(#d)" />
	<path d="M10.57 9.5q-.123-.325-.232-.635-.108-.318-.223-.642H7.85L7.395 9.5h-.73q.29-.794.542-1.465.253-.678.49-1.284.246-.603.484-1.152.24-.555.5-1.096h.64q.26.54.5 1.097.24.55.477 1.154.245.607.498 1.285.253.67.54 1.464h-.764zm-.657-1.855q-.23-.627-.462-1.212-.22-.59-.466-1.132-.253.544-.483 1.135-.224.585-.45 1.212h1.864z" fill="#302f26" />
</svg>
