<svg xmlns="http://www.w3.org/2000/svg" width="32" height="32" viewBox="0 0 32 32">
	<path fill="#fec82f" d="M16 2.17c3 0 16.5 23.382 15 25.98-1.5 2.599-28.5 2.599-30 0C-.5 25.553 13 2.17 16 2.17z" />
	<path fill="#fff" d="M13.872 7.956q0-.535.596-.535h3.16q.534 0 .534.535v13.1q0 .232-.134.39-.133.145-.4.145h-3.16q-.183 0-.39-.145-.206-.146-.206-.39zm0 15.981q0-.243.134-.389.146-.146.4-.146h3.21q.206 0 .376.146.182.146.182.389v2.941q0 .219-.146.389-.145.17-.413.17h-3.208q-.535 0-.535-.559z" />
</svg>
